<svg xmlns="http://www.w3.org/2000/svg" viewBox="0 0 1200 700" role="img" aria-labelledby="title desc">
  <title id="title">Sample Banana Farm in Limon Province, Costa Rica</title>
  <desc id="desc">Illustrated mockup of a banana farm with mountains, rows of banana plants, and workers.</desc>
  <defs>
    <linearGradient id="sky" x1="0" y1="0" x2="0" y2="1">
      <stop offset="0%" stop-color="#dff3ff" />
      <stop offset="100%" stop-color="#f3fbff" />
    </linearGradient>
    <linearGradient id="field" x1="0" y1="0" x2="0" y2="1">
      <stop offset="0%" stop-color="#99d98c" />
      <stop offset="100%" stop-color="#4d7c45" />
    </linearGradient>
  </defs>

  <rect width="1200" height="700" fill="url(#sky)" />
  <circle cx="970" cy="130" r="62" fill="#ffe067" />

  <path d="M0 360 L210 250 L440 350 L660 230 L930 360 L1200 240 L1200 700 L0 700 Z" fill="#8db0c8" opacity="0.75" />
  <path d="M0 410 L200 320 L420 390 L640 300 L890 400 L1200 300 L1200 700 L0 700 Z" fill="#7596af" opacity="0.9" />

  <rect x="0" y="420" width="1200" height="280" fill="url(#field)" />

  <g opacity="0.95">
    <path d="M120 470 C130 440 165 430 178 468 C160 470 140 472 120 470 Z" fill="#2e6a3f" />
    <path d="M185 470 C195 435 230 430 242 468 C224 470 204 472 185 470 Z" fill="#2e6a3f" />
    <rect x="176" y="470" width="10" height="38" fill="#386641" />

    <path d="M300 500 C315 455 356 445 372 500 C348 502 324 504 300 500 Z" fill="#2f6f47" />
    <path d="M380 500 C394 457 438 448 452 500 C430 503 404 504 380 500 Z" fill="#2f6f47" />
    <rect x="368" y="500" width="12" height="45" fill="#386641" />

    <path d="M530 475 C542 438 579 432 594 476 C572 478 553 479 530 475 Z" fill="#2e6a3f" />
    <path d="M595 475 C607 437 643 431 656 475 C635 477 616 479 595 475 Z" fill="#2e6a3f" />
    <rect x="588" y="475" width="11" height="42" fill="#386641" />

    <path d="M770 505 C783 460 823 452 838 505 C815 507 792 508 770 505 Z" fill="#2f6f47" />
    <path d="M849 505 C860 462 905 454 916 505 C895 507 870 508 849 505 Z" fill="#2f6f47" />
    <rect x="839" y="505" width="12" height="45" fill="#386641" />

    <path d="M985 480 C997 438 1038 433 1050 480 C1031 482 1006 483 985 480 Z" fill="#2e6a3f" />
    <path d="M1054 480 C1066 437 1108 431 1120 480 C1099 482 1075 484 1054 480 Z" fill="#2e6a3f" />
    <rect x="1048" y="480" width="11" height="42" fill="#386641" />
  </g>

  <g>
    <rect x="180" y="525" width="28" height="80" fill="#4f3a2a" />
    <circle cx="194" cy="512" r="14" fill="#f6c18f" />
    <path d="M205 545 C230 535 242 553 226 567 C216 577 206 580 190 573 Z" fill="#f4d35e" />

    <rect x="955" y="535" width="28" height="80" fill="#4f3a2a" />
    <circle cx="969" cy="522" r="14" fill="#f0b67f" />
    <path d="M978 553 C1004 543 1018 563 999 577 C989 585 980 586 964 581 Z" fill="#f4d35e" />
  </g>

  <rect x="35" y="28" width="760" height="92" rx="14" fill="#ffffff" opacity="0.92" />
  <text x="58" y="66" fill="#1f4230" font-family="Verdana, sans-serif" font-size="34" font-weight="700">Limon Province Banana Farm</text>
  <text x="58" y="98" fill="#365f4a" font-family="Verdana, sans-serif" font-size="22">Sample sourcing image for in-store QR prototype</text>
</svg>
